<svg width="35" height="35" viewBox="0 0 35 35" fill="none" xmlns="http://www.w3.org/2000/svg">
<rect x="1" y="1" width="33" height="33" rx="5" fill="#DBA833"/>
<path d="M30.6051 6.06163C30.1401 5.66731 29.4097 5.61089 28.6545 5.91407H28.6533C27.8591 6.23275 6.17148 15.5352 5.2886 15.9153C5.12802 15.9711 3.72558 16.4944 3.87004 17.66C3.999 18.7109 5.12616 19.1461 5.2638 19.1963L10.7775 21.0842C11.1433 22.3019 12.4918 26.7944 12.79 27.7542C12.976 28.3525 13.2792 29.1387 13.8105 29.3005C14.2767 29.4803 14.7405 29.316 15.0406 29.0804L18.4115 25.9537L23.8533 30.1976L23.9828 30.2751C24.3524 30.4388 24.7064 30.5206 25.0443 30.5206C25.3053 30.5206 25.5558 30.4717 25.7951 30.3737C26.6104 30.0389 26.9365 29.262 26.9706 29.174L31.0353 8.04625C31.2833 6.91785 30.9386 6.34373 30.6051 6.06163ZM15.6401 21.8394L13.7801 26.7994L11.9201 20.5994L26.1801 10.0594L15.6401 21.8394Z" fill="black"/>
<rect x="1" y="1" width="33" height="33" rx="5" stroke="black" stroke-width="2"/>
</svg>
